<svg width="24" height="24" viewBox="0 0 24 24" xmlns="http://www.w3.org/2000/svg">
	<path
		d="M20.25 18C20.25 17.4032 20.0128 16.8311 19.5909 16.4092C19.1689 15.9872 18.5968 15.75 18 15.75C17.4033 15.75 16.8312 15.9872 16.4092 16.4092C15.9873 16.8311 15.75 17.4032 15.75 18C15.75 18.5967 15.9873 19.1688 16.4092 19.5908C16.8312 20.0128 17.4033 20.25 18 20.25C18.5968 20.25 19.1689 20.0128 19.5909 19.5908C20.0128 19.1688 20.25 18.5967 20.25 18ZM9.66215 3.91111C10.4042 1.6963 13.5959 1.6963 14.3379 3.91111L14.4043 4.14061L14.4375 4.24998C14.4773 4.3571 14.5357 4.45663 14.6104 4.54393C14.71 4.66036 14.836 4.75183 14.9776 4.81053C15.1193 4.86922 15.2729 4.89367 15.4258 4.88182C15.5787 4.86996 15.7265 4.822 15.8575 4.74217C18.0718 3.39322 20.607 5.92728 19.2588 8.14256V8.14353C19.1793 8.27425 19.1311 8.42163 19.1192 8.5742C19.1074 8.72698 19.1318 8.88085 19.1905 9.02244C19.2491 9.16403 19.3407 9.28993 19.4571 9.38963C19.5734 9.4892 19.7116 9.56048 19.8604 9.59666C20.8932 9.84788 21.5171 10.6235 21.6963 11.4736C21.7815 11.8788 21.5214 12.2769 21.1163 12.3623C20.7111 12.4474 20.314 12.1873 20.2286 11.7822C20.1577 11.4465 19.9287 11.1565 19.5059 11.0537C19.1277 10.9617 18.7761 10.7815 18.4805 10.5283C18.1852 10.2752 17.9536 9.95602 17.8047 9.59666C17.6558 9.23705 17.594 8.84703 17.6241 8.45896C17.6541 8.07099 17.7752 7.69562 17.9776 7.36326C18.4922 6.51798 17.5712 5.55541 16.7207 5.9785L16.6387 6.02342C16.3062 6.22616 15.9303 6.34777 15.542 6.37791C15.1537 6.40802 14.7632 6.34536 14.4034 6.19627C14.0437 6.04718 13.7239 5.81535 13.4707 5.51951C13.2177 5.22375 13.0381 4.8724 12.9463 4.49412L12.92 4.4033C12.6277 3.53227 11.3724 3.53227 11.0801 4.4033L11.0538 4.49412C10.6702 6.07155 8.91185 6.84516 7.49907 6.09959L7.36333 6.02244C6.49082 5.49125 5.49303 6.48981 6.02348 7.36131L6.09575 7.48826C6.25518 7.78821 6.35161 8.11829 6.37797 8.45799C6.40808 8.84634 6.34542 9.23681 6.19633 9.59666C6.04724 9.95637 5.81541 10.2761 5.51958 10.5293C5.22382 10.7823 4.87247 10.9619 4.49419 11.0537C3.53359 11.2867 3.50313 12.6179 4.40336 12.9199L4.49419 12.9463L4.63481 12.9844C4.95949 13.0839 5.2609 13.25 5.51958 13.4717C5.81493 13.7248 6.04649 14.0439 6.19536 14.4033C6.34426 14.7629 6.40605 15.1529 6.37602 15.541C6.34599 15.929 6.22489 16.3043 6.02251 16.6367C5.49131 17.5092 6.48988 18.507 7.36137 17.9765L7.48833 17.9043C7.78827 17.7449 8.11835 17.6484 8.45805 17.6221C8.8464 17.5919 9.23687 17.6546 9.59672 17.8037C9.95644 17.9528 10.2762 18.1846 10.5293 18.4804C10.751 18.7395 10.9164 19.0411 11.0157 19.3662L11.0538 19.5068L11.0577 19.5215C11.0964 19.6975 11.1861 19.8588 11.3155 19.9844C11.4448 20.1098 11.6081 20.195 11.7852 20.2285C12.1922 20.3054 12.4597 20.6975 12.3829 21.1045C12.3058 21.5113 11.9138 21.7789 11.5069 21.7021C11.0409 21.6141 10.6109 21.3908 10.2706 21.0605C9.9338 20.7337 9.70034 20.3159 9.59672 19.8584L9.59575 19.8594C9.55965 19.7106 9.48919 19.5724 9.38969 19.456C9.29004 19.3396 9.16407 19.2481 9.02251 19.1894C8.88084 19.1307 8.72715 19.1063 8.57426 19.1181C8.42138 19.13 8.27356 19.178 8.14262 19.2578C5.92834 20.6067 3.39306 18.0727 4.74126 15.8574V15.8564C4.82083 15.7257 4.86903 15.5783 4.8809 15.4258C4.89273 15.273 4.86824 15.1191 4.80961 14.9775C4.75099 14.8359 4.65939 14.71 4.54301 14.6103C4.42688 14.5109 4.28919 14.4395 4.14067 14.4033V14.4043C1.62043 13.7929 1.62043 10.2071 4.14067 9.59568L4.25004 9.56248C4.35717 9.52271 4.45669 9.46428 4.54399 9.38963C4.66043 9.28998 4.75189 9.16401 4.81059 9.02244C4.86929 8.88077 4.89373 8.72709 4.88188 8.5742C4.87003 8.42131 4.82206 8.27349 4.74223 8.14256C3.39328 5.92827 5.92735 3.393 8.14262 4.74119L8.25102 4.79783C8.79838 5.04561 9.44904 4.74152 9.59575 4.14061L9.66215 3.91111ZM11.1748 8.34178C11.8666 8.18574 12.5888 8.22917 13.2569 8.46678C13.9247 8.70435 14.5115 9.12612 14.9493 9.68357C15.3871 10.2412 15.6582 10.9119 15.7305 11.6172C15.7727 12.0292 15.4727 12.3982 15.0606 12.4404C14.6487 12.4824 14.2805 12.1824 14.2383 11.7705C14.195 11.3472 14.0323 10.945 13.7696 10.6103C13.5069 10.2757 13.1548 10.0224 12.754 9.87986C12.3531 9.7373 11.92 9.71105 11.5049 9.80467C11.09 9.89826 10.71 10.1075 10.4092 10.4082C10.1084 10.709 9.89836 11.0898 9.80473 11.5049C9.71122 11.9198 9.73742 12.3531 9.87993 12.7539C10.0225 13.1546 10.2759 13.5068 10.6104 13.7695C10.945 14.0322 11.3474 14.1949 11.7706 14.2383C12.1826 14.2805 12.4827 14.6485 12.4405 15.0605C12.3982 15.4725 12.0301 15.7725 11.6182 15.7304C10.9128 15.6582 10.2423 15.387 9.68462 14.9492C9.12685 14.5113 8.70444 13.924 8.46684 13.2558C8.22935 12.5879 8.18591 11.8663 8.34184 11.1748C8.49788 10.483 8.84725 9.84906 9.34868 9.34764C9.85003 8.8464 10.4833 8.49779 11.1748 8.34178ZM21.75 18C21.75 18.7409 21.5296 19.4584 21.127 20.0674L22.5293 21.4697C22.8222 21.7626 22.8222 22.2374 22.5293 22.5303C22.2364 22.823 21.7616 22.8231 21.4688 22.5303L20.0665 21.1279C19.4577 21.53 18.7405 21.75 18 21.75C17.0055 21.75 16.0519 21.3546 15.3487 20.6513C14.6454 19.9481 14.25 18.9945 14.25 18C14.25 17.0054 14.6454 16.0519 15.3487 15.3486C16.0519 14.6454 17.0055 14.25 18 14.25C18.9946 14.25 19.9481 14.6454 20.6514 15.3486C21.3547 16.0519 21.75 17.0054 21.75 18Z"
	/>
</svg>
