<svg width="194" height="49" viewBox="0 0 194 49" xmlns="http://www.w3.org/2000/svg">
	<g clip-path="url(#clip0_695_1290)">
		<path d="M55.1143 0V49H0V33.6851H6.11241V15.3106H0V0H55.1143Z" fill="white" />
		<path d="M39.8082 21.4392V27.5626H21.4386V33.6859H15.3125V15.3115H21.4386V21.4392H39.8082Z" fill="#5B2B62" />
		<path d="M45.931 9.18555H21.4384V15.3103H45.931V9.18555Z" fill="#5B2B62" />
		<path d="M45.9316 33.6855H21.4391V39.8103H45.9316V33.6855Z" fill="#5B2B62" />
		<path d="M74.2193 35.6576H78.6449V16.0361H74.2193V35.6576Z" fill="white" />
		<path d="M78.6485 11.7764V16.0362H86.1434V35.6161H90.7058V16.0362H97.9271V11.7764H78.6485Z" fill="white" />
		<path d="M74.2256 11.7734L74.2187 16.0348H67.4451L67.4441 11.7734H74.2256Z" fill="white" />
		<path d="M136.648 20.2344V23.6078H141.109V42.4618H144.642V20.2344H136.648Z" fill="white" />
		<path
			d="M152.346 19.9248C148.348 19.9248 145.059 22.9531 144.642 26.8381C144.613 27.1118 144.595 27.3914 144.595 27.677C144.595 27.9626 144.613 28.2422 144.642 28.5159C145.059 32.4009 148.348 35.4292 152.346 35.4292C156.622 35.4292 160.09 31.9547 160.09 27.677C160.09 23.3993 156.622 19.9248 152.346 19.9248ZM152.346 31.6334C150.162 31.6334 148.39 29.8605 148.39 27.677C148.39 25.4935 150.162 23.7265 152.346 23.7265C154.529 23.7265 156.295 25.4935 156.295 27.677C156.295 29.8605 154.529 31.6334 152.346 31.6334Z"
			fill="white"
		/>
		<path
			d="M130.224 19.9717C128.368 19.9717 126.423 20.9117 125.221 22.5419C124.168 20.8582 122.366 19.9717 120.563 19.9717C118.791 19.9717 117.476 20.8284 116.566 21.9172V20.2275H112.848V35.3809H116.566V27.3491C116.566 25.2311 117.506 23.3451 119.79 23.3451C121.593 23.3451 122.538 24.7432 122.538 26.891V35.3809H126.25V26.7779C126.393 24.9157 127.368 23.3451 129.48 23.3451C131.282 23.3451 132.228 24.7432 132.228 26.891V35.3809H135.94V26.0342C135.94 22.0897 133.085 19.9717 130.224 19.9717Z"
			fill="white"
		/>
		<path d="M161.887 35.2627V20.2295H165.614V35.2627H161.887Z" fill="white" />
		<path
			d="M168.264 35.2627V20.2295H171.991V22.4701C172.88 20.9101 174.715 19.7188 177.668 20.1728V24.1154C174.83 23.1795 171.991 24.6541 171.991 27.6041V35.2627H168.264Z"
			fill="white"
		/>
		<path
			d="M178.338 27.7456C178.338 23.3776 181.894 19.9736 186.167 19.9736C189.951 19.9736 193.134 22.697 193.823 26.271C194.024 27.1783 194.081 28.143 193.851 29.1069H182.037C182.468 31.1209 184.131 32.2268 186.167 32.2268C187.6 32.2268 189.092 31.6603 190.066 30.6669L193.335 31.5462C192.102 34.0142 188.977 35.4888 186.167 35.4888C181.751 35.4888 178.338 31.9436 178.338 27.7456ZM190.21 26.2989C189.809 24.6536 188.317 23.2356 186.138 23.2356C183.959 23.2356 182.439 24.6536 182.037 26.2989H190.21Z"
			fill="white"
		/>
		<path
			d="M94.8582 27.7876C94.8582 23.4196 98.4136 20.0156 102.687 20.0156C106.471 20.0156 109.654 22.739 110.342 26.313C110.543 27.2202 110.601 28.1849 110.371 29.1489H98.5572C98.9878 31.1629 100.651 32.2688 102.687 32.2688C104.12 32.2688 105.611 31.7023 106.586 30.7088L109.855 31.5882C108.622 34.0562 105.497 35.5308 102.687 35.5308C98.2709 35.5308 94.8582 31.9856 94.8582 27.7876ZM106.73 26.3409C106.328 24.6956 104.837 23.2776 102.658 23.2776C100.478 23.2776 98.9591 24.6956 98.5572 26.3409H106.73Z"
			fill="white"
		/>
		<path d="M165.601 17.4112H161.883V13.5869H165.627L165.601 17.4112Z" fill="white" />
	</g>
	<defs>
		<clipPath id="clip0_695_1290">
			<rect width="194" height="49" fill="white" />
		</clipPath>
	</defs>
</svg>
